<svg xmlns="http://www.w3.org/2000/svg" xmlns:xlink="http://www.w3.org/1999/xlink" viewBox="0 0 1516 278"><defs><style>.cls-1,.cls-12,.cls-7{fill:#be0811;}.cls-1,.cls-10,.cls-11,.cls-12,.cls-14,.cls-15,.cls-16,.cls-17,.cls-18,.cls-19,.cls-2,.cls-20,.cls-21,.cls-22,.cls-23,.cls-24,.cls-26,.cls-3,.cls-4,.cls-5,.cls-6,.cls-7,.cls-8,.cls-9{fill-rule:evenodd;}.cls-10,.cls-16,.cls-2,.cls-4{fill:#211915;}.cls-10,.cls-11,.cls-12,.cls-13,.cls-18,.cls-2,.cls-21,.cls-24,.cls-26,.cls-3,.cls-4,.cls-5,.cls-7,.cls-8{stroke:#211915;}.cls-10,.cls-11,.cls-12,.cls-13,.cls-18,.cls-2,.cls-20,.cls-21,.cls-24,.cls-26,.cls-3,.cls-4,.cls-5,.cls-7,.cls-8{stroke-miterlimit:2.61;}.cls-18,.cls-2,.cls-20,.cls-21,.cls-24,.cls-3,.cls-7,.cls-8{stroke-width:0.22px;}.cls-11,.cls-15,.cls-26,.cls-3,.cls-5{fill:#fded00;}.cls-4{stroke-width:0.1px;}.cls-5{stroke-width:0.1px;}.cls-27,.cls-6,.cls-8{fill:#fff;}.cls-9{fill:#be9162;}.cls-10{stroke-width:0.14px;}.cls-11{stroke-width:0.14px;}.cls-12{stroke-width:0.3px;}.cls-13{fill:none;stroke-width:0.2px;}.cls-14{fill:#009ada;}.cls-17,.cls-18{fill:#f0ce00;}.cls-19{fill:#b4733c;}.cls-20{fill:#56884a;stroke:#008f45;}.cls-21{fill:#80736d;}.cls-22{fill:#905d44;}.cls-23{fill:#807258;}.cls-24{fill:#008f45;}.cls-25{font-size:9px;font-family:Arial-BoldMT, Arial;font-weight:700;}.cls-26{stroke-width:0.25px;}.cls-28{fill:#c0312a;}.cls-29{fill:#424141;}.cls-30{font-size:101.62px;fill:#eff3f4;}.cls-30,.cls-31{font-family:ArialMT, Arial;}.cls-31{font-size:66.46px;fill:#e8eeef;}</style><symbol id="Nuevo_símbolo" data-name="Nuevo símbolo" viewBox="0 0 93.47 118.41"><path class="cls-1" d="M47.86,106.42,23.37,50.51,3.21,34.2,3.93,90c.15,12.3,13.55,30.74,43.93,16.43Z"/><path class="cls-2" d="M12.2,41.83,2.4,34.24l.14-.45c0-.09,5.56,4.44,10,7.61.18.13-.27,0-.38.43Z"/><path class="cls-2" d="M2.42,32.49l-2-1v2.13s0,0,0,0v.07l2.11.67-.16-1.94Z"/><path class="cls-3" d="M2.51,34.37l-.22-1.88-1.74-1,0,2c0,.22,1.9.56,1.93.81Z"/><path class="cls-3" d="M2.51,34.37.57,31.66l0,2c0,.22,1.78.53,1.91.71Z"/><path class="cls-4" d="M2.54,33.61A.59.59,0,1,1,2,34.2a.59.59,0,0,1,.59-.59Z"/><path class="cls-5" d="M2.54,33.79a.41.41,0,1,1-.42.41.41.41,0,0,1,.42-.41Z"/><path class="cls-6" d="M3.59,68.39c1.32,1.16,3.81.48,4.09,2.63.15,1.19,1.79,1.14,2.27,2.11,1.24,2.49,3.34,1.48,4,2.31,1,1.31,2.8,2.54,4.28,2.22,1.66-.36,3.37,1.39,4.94,2.44,2.8,1.86,5.48,1.08,5.48,7.6,0,2.56.17,5.82-.66,7-1.65,2.33-4.69,2-7.83,2.74-.59.13-3.31-2.6-5.85-1.86-1.11.33-2.39-.49-3.67-.23-1.61.32-3.3.16-4-1.39-.88-1.85-2.67-2-2.67-2.75,0-5.12-.31-18-.34-22.8Z"/><path class="cls-3" d="M22.48,72C19.66,69.63,8.37,64.77,6.77,61.29S7.93,53,7.18,55.6c-.93,3.21,9.34,7.82,12.17,9.15,1.09.51,4.65,1.83,4.65,3.43,0,.24-.37,1.47-.37,1.83C23.63,71.11,22.48,71.71,22.48,72Z"/><path class="cls-7" d="M27,72.16c.17-11.84,2.39-24.69.93-29.65a111.71,111.71,0,0,1-14-10.87c-.49-.45-5.5,20-7.1,24.56C8.66,62,17.8,63.93,27,72.16Z"/><path class="cls-8" d="M22.26,48.37c-.81-.35-2.71-2.25-3.6-2.67-2-1-6.15-4.73-7.08-3.83-1.76,1.71-2.09,4.31-2.47,6.45-.18,1,.75,1.06,1.54,1.44,1.41.67,2,1.47,3.53,1.66,3.82.48,5.89,3.49,7.88,2.59.8-.37.43-3.2,1.36-3.67,1.39-.7-.58-1.16-1.16-2Z"/><path class="cls-9" d="M27.54,57.51c.09.19-.12.62-.42,1.12a.86.86,0,0,0,.57-.35,2.12,2.12,0,0,1-.52.9c.14,0,.3,0,.49-.32v.23c-.05.18-.17.45-.23.63s-.2.46-.31.73a2.26,2.26,0,0,1-.18-1.94c-.22-.19,0-.61.24-.92-.06,0-.23.15-.3.17a2.57,2.57,0,0,1,.52-1.36c.3-.17.56-.18.76.2.05.23.06.33-.38.56s-.42.35-.24.35Z"/><path class="cls-2" d="M13.69,31.77c2.22,6.56,2.41,18,4.11,25.1a16.41,16.41,0,0,0,.47,2.22A11.88,11.88,0,0,0,17,57.63c-1.5-1-5.29-3.69-8.77-1.91a3.59,3.59,0,0,0-.74.57c-.3.29-.47.48-.47.48-.19-.5-.24-.74.21-1.17.45-2,.94-4.25,1.44-6.47l.72-3.19c1.52-6.52,3.12-12.54,4.35-14.17Z"/><path class="cls-2" d="M27.23,42.53l-14-10.81.19-.65c0-.12,7.93,6.33,14.33,10.86.26.18-.39,0-.55.6Z"/><path class="cls-2" d="M6.24,58.31c.15-.66.34-1.45.46-1.86.17-.57,2.08-2.86,3-2.86.46,0,1.27-.12,1.84-.12,2.65,0,3.8,1.43,5,2.62.23.24.88.72.92,1.07a13.23,13.23,0,0,1,.95,2.22c-3.44-2.63-9.7-3.32-11.77-1.08C6.32,58.6,6.08,59,6.24,58.31Z"/><path class="cls-3" d="M6.12,58.59c-.07.25.34-1.61.58-2.37.17-.52,2.08-2.64,3-2.64.46,0,1.27-.11,1.84-.11,2.65,0,3.8,1.32,5,2.42.23.22.83.67.92,1A16.86,16.86,0,0,1,18,58.79C14.1,56,7.25,56.22,6.15,58.65Z"/><path class="cls-7" d="M13.38,31.43c2.26,6.78,2.23,18.57,4.17,25.42A9.43,9.43,0,0,0,8,55.05a4.48,4.48,0,0,0-1.32,1.14c3.69-13.39,4.71-20,6.69-24.76Z"/><path class="cls-8" d="M15.53,42.37c.15,1.33.31,3.38.4,4.84,0,.25-5.31-1.17-7.42,2.09.8-2.76,1-4.31,1.47-5.81,0-.16.1-.31.16-.46,1.18-1.09,5.32-1.24,5.39-.66Z"/><path class="cls-2" d="M13.28,29.22l-2.79-1.37v3a.08.08,0,0,0,0,.05V31l3,1-.24-2.77Z"/><path class="cls-3" d="M13.41,31.9l-.3-2.68-2.49-1.35.05,2.88c0,.3,2.7.79,2.74,1.15Z"/><path class="cls-3" d="M13.41,31.9,10.65,28l0,2.86c0,.3,2.54.75,2.72,1Z"/><path class="cls-10" d="M13.45,30.82a.84.84,0,1,1-.83.83.83.83,0,0,1,.83-.83Z"/><path class="cls-11" d="M13.45,31.07a.59.59,0,1,1,0,1.17.59.59,0,1,1,0-1.17Z"/><path class="cls-1" d="M45.36,106.62,69.85,50.71,90,34.39l-.72,55.79c-.16,12.3-13.55,30.74-43.93,16.44Z"/><path class="cls-2" d="M81,42l9.81-7.59L90.68,34c0-.08-5.56,4.45-10.05,7.62-.18.13.28,0,.38.43Z"/><path class="cls-2" d="M90.8,32.68l2-.95v2.12a.08.08,0,0,1,0,0V34l-2.12.67.17-2Z"/><path class="cls-3" d="M90.71,34.57l.21-1.89,1.75-.94,0,2c0,.21-1.89.56-1.92.81Z"/><path class="cls-3" d="M90.71,34.57l1.94-2.72,0,2c0,.21-1.78.53-1.91.71Z"/><path class="cls-4" d="M90.68,33.81a.59.59,0,1,0,.59.58.58.58,0,0,0-.59-.58Z"/><path class="cls-5" d="M90.68,34a.42.42,0,1,0,.41.41.41.41,0,0,0-.41-.41Z"/><path class="cls-6" d="M89.63,68.58c-1.32,1.17-3.81.48-4.09,2.64-.16,1.19-1.8,1.14-2.28,2.11-1.23,2.49-3.34,1.48-4,2.31-1,1.31-2.81,2.54-4.28,2.22-1.66-.36-3.37,1.39-5,2.43-2.8,1.86-5.47,1.09-5.47,7.6,0,2.56-.17,5.82.66,7,1.64,2.33,4.69,2,7.82,2.74.59.14,3.32-2.6,5.86-1.85,1.11.32,2.39-.5,3.67-.24,1.61.33,3.3.17,4-1.38.87-1.85,2.67-2,2.67-2.76,0-5.11.3-18,.34-22.8Z"/><path class="cls-3" d="M70.74,72.15C73.55,69.82,84.85,65,86.45,61.48S85.28,53.21,86,55.8C87,59,76.7,63.62,73.87,64.94c-1.09.52-4.65,1.84-4.65,3.43,0,.25.36,1.47.36,1.84,0,1.1,1.16,1.7,1.16,1.94Z"/><path class="cls-7" d="M66.24,72.36c-.17-11.85-2.4-24.7-.94-29.65A112.09,112.09,0,0,0,79.36,31.84c.48-.46,5.5,20,7.1,24.56-1.91,5.79-11,7.73-20.22,16Z"/><path class="cls-8" d="M71,48.56c.81-.34,2.71-2.24,3.59-2.67,2-1,6.15-4.73,7.08-3.83,1.77,1.71,2.1,4.31,2.47,6.45.19,1.06-.74,1.07-1.54,1.45-1.4.66-2,1.46-3.52,1.65-3.82.49-5.9,3.5-7.88,2.59-.8-.37-.44-3.2-1.36-3.66-1.4-.7.58-1.16,1.16-2Z"/><path class="cls-9" d="M65.68,57.7c-.1.19.12.62.42,1.12a.84.84,0,0,1-.58-.34,2.37,2.37,0,0,0,.52.89c-.13.06-.29,0-.49-.32v.23c.06.19.18.45.23.64s.21.45.32.72a2.21,2.21,0,0,0,.17-1.93c.23-.2,0-.61-.23-.93.06,0,.23.16.29.18a2.39,2.39,0,0,0-.52-1.36.46.46,0,0,0-.75.2c0,.23-.06.33.38.55s.41.36.24.35Z"/><path class="cls-2" d="M79.52,32c-2.22,6.57-2.4,18-4.1,25.11A16.24,16.24,0,0,1,75,59.28a11,11,0,0,1,1.32-1.46c1.49-1,5.29-3.69,8.77-1.91a3.37,3.37,0,0,1,.73.58c.3.29.47.48.47.48.2-.51.25-.75-.21-1.17-.45-2-.93-4.26-1.43-6.48-.24-1.06-.48-2.13-.73-3.18C82.35,39.61,80.76,33.6,79.52,32Z"/><path class="cls-2" d="M66,42.73,80,31.91l-.2-.65c0-.12-7.93,6.34-14.32,10.86-.26.18.39,0,.54.61Z"/><path class="cls-2" d="M87.21,59.56c.08.27-.45-2.1-.7-2.92-.16-.57-2.07-2.85-3-2.85-.46,0-1.27-.12-1.85-.12-2.65,0-3.8,1.43-5,2.62-.23.23-.88.71-.92,1.07a12.81,12.81,0,0,0-1,2.22c3.89-3,11.44-3.47,12.36,0Z"/><path class="cls-3" d="M87.21,59.11c.08.25-.45-1.93-.7-2.69-.16-.53-2.07-2.64-3-2.64-.46,0-1.27-.11-1.85-.11-2.65,0-3.8,1.32-5,2.42-.23.22-.83.67-.92,1A16.19,16.19,0,0,0,75.22,59c3.9-2.76,11.07-3.07,12,.12Z"/><path class="cls-7" d="M79.84,31.62c-2.27,6.79-2.23,18.58-4.18,25.43a9.43,9.43,0,0,1,9.54-1.8,4.55,4.55,0,0,1,1.33,1.14C82.83,43,81.81,36.33,79.84,31.62Z"/><path class="cls-8" d="M77.69,42.57c-.15,1.32-.31,3.37-.41,4.84,0,.25,5.31-1.18,7.42,2.09-.8-2.77-1-4.31-1.46-5.82l-.16-.46c-1.19-1.09-5.33-1.24-5.39-.65Z"/><path class="cls-2" d="M79.94,29.41l2.79-1.36v3a.09.09,0,0,1,0,.05v.09l-3,1,.24-2.77Z"/><path class="cls-3" d="M79.8,32.1l.31-2.69,2.48-1.35,0,2.88c0,.31-2.7.8-2.75,1.16Z"/><path class="cls-3" d="M79.8,32.1l2.77-3.87,0,2.85c0,.31-2.53.76-2.72,1Z"/><path class="cls-10" d="M79.76,31a.84.84,0,1,0,.84.84.84.84,0,0,0-.84-.84Z"/><path class="cls-11" d="M79.76,31.26a.59.59,0,0,0-.58.59.59.59,0,1,0,1.17,0,.59.59,0,0,0-.59-.59Z"/><path class="cls-12" d="M44.36,102.85c0,.89-1.75,3.8-3,6.86-.13.32-.33.7-.13,1a1.73,1.73,0,0,1-.39,2.54c-.22.19-.17.45-.22.55s-.36.09-.41.18c-.6,1.18-.09,1.09.3,1.12s.58,0,.87,0c.79,0-1.25,3.12-1,3,2.44-.67,5.89-.15,6-2.53,0-1-1.32-1.6-1.16-2.42,0-.14.66.09,1.19,0a.84.84,0,0,0,.59-.87,6.62,6.62,0,0,0-.06-.68c-.12-.66-2.68-2.66.27-3,.22,0,1.06.37,1,.17-.11-1.92-2.45-5-2.4-6.87,0-.69.2-.73-.41.09-.11.1-.62,1-1.13.92Z"/><path class="cls-13" d="M40.46,118.12c3-.36,5.41-.76,5.82-1.65.74-1.62-2.42-1.49-4.55-1.41-1,0-1.57,0-1.58-.13,0-.35-.12-.52,0-.76a8.08,8.08,0,0,1,.76-.79c1.58-1.38,5.95.51,6.11-.7.38-2.76-5.79-1.08-5.75-2,.18-3.52,7.41-2,6.66-1.93"/><path class="cls-12" d="M49,103c0,.89,1.75,3.79,3,6.86.13.32.33.7.13,1-1.2,1.72,1,2.63.85,3s.35.4.44.74c.22.84-.69.67-1.44.65s1.25,3.12,1,3.05c-2.44-.67-5.89-.15-6-2.54,0-1,1.32-1.6,1.16-2.42,0-.13-.66.1-1.19,0a.83.83,0,0,1-.59-.86,6.62,6.62,0,0,1,.06-.68c.12-.67,2.68-2.66-.27-3-.22,0-1.06.36-1,.16.11-1.91,2.45-5,2.4-6.86,0-.7-.2-.73.41.09.11.09.62,1,1.13.92Z"/><path class="cls-13" d="M52.71,118.26c-3-.36-5.42-.77-5.82-1.65-1.1-2.39,6.32-1,6.34-1.52.12-3.41-6.9-.81-7.1-2.27-.38-2.76,5.8-1.08,5.76-2-.18-3.51-7.41-2-6.66-1.92"/><path class="cls-2" d="M46.69,107.41c-1.12-1.13-2.4-2.62-4.73-2.79-5-.72-9.83.12-14.49-2-3-1.35-10.32-6-9.53-14.63.93-10.09,5-13.13,5.45-24.22-.46-3.69-1.73-8.28-4.77-11,2.88-3.2,6.29-7.58,9.17-10.78,5.77,4.76,13.37,3.29,18.9,0,5.54,3.27,13.14,4.74,18.9,0,2.89,3.2,6.29,7.58,9.17,10.78-3,2.73-4.3,7.33-4.76,11,.43,11.09,4.52,14.12,5.45,24.22.79,8.58-6.52,13.28-9.54,14.62-4.65,2.08-9.52,1.24-14.49,2-2.32.16-3.6,1.66-4.73,2.77Z"/><path class="cls-6" d="M47.87,73.61V45.45c5.4,2.35,10.9,3.33,16.83,0,2.68,3,4.37,4.66,7,7.64-2.59,2.6-3.76,7.62-3.81,11.66a32.55,32.55,0,0,0,1.63,8.86Z"/><path class="cls-14" d="M24.24,73.61a26.34,26.34,0,0,0,1.49-9c0-3.46-1.22-9.46-4-12,2.68-3,4-4.64,6.66-7.61,5,4.11,12.12,2.75,17.24.11V73.61Z"/><path class="cls-15" d="M46.69,106.86c-1.11-1.11-2.37-2.43-4.67-2.59-4.91-.71-9.72.11-14.32-1.94-3-1.33-10.2-6-9.42-14.45.92-10,5-13,5.39-23.93-.46-3.65-1.45-8.51-4.45-11.21,2.85-3.17,5.82-7,8.67-10.13,5.69,4.7,13.33,3,18.8-.16,5.47,3.23,13.18,4.94,18.87.24,2.85,3.16,5.89,6.9,8.74,10.06-3,2.7-4.13,7.57-4.58,11.22.43,11,4.46,14,5.38,23.93.78,8.48-6.43,13.12-9.42,14.45-4.59,2.05-9.41,1.22-14.32,1.93-2.29.16-3.55,1.49-4.67,2.58ZM23.58,74h22.5V44.37c-5.19,2.83-12.61,4.26-17.82,0-2.71,3-4.73,5.32-7.44,8.33,2.85,2.57,4.35,8.32,4.36,11.82A27.18,27.18,0,0,1,23.58,74Zm23.8,0H70.25a25.9,25.9,0,0,1-1.65-9.53C68.73,61,69.67,55.6,72.53,53c-2.71-3-5-5.49-7.69-8.5-5.41,3.83-12.3,2.69-17.46-.12V74Zm23.21,1.06H23.2c-1.38,3.63-3.05,6.86-3.54,12.16-.74,8.07,6.13,12.49,9,13.75,4.38,2,9,1.16,13.63,1.84,2.18.15,3.38,1.56,4.44,2.62,1.06-1,2.26-2.45,4.45-2.6,4.67-.68,9.25.11,13.62-1.84,2.84-1.27,9.71-5.69,9-13.75-.49-5.31-1.9-8.54-3.13-12.18Z"/><path class="cls-1" d="M46.69,105c-1-1-2.23-2.33-4.39-2.47-4.61-.67-9.14.1-13.46-1.82-2.8-1.25-9.44-5.62-8.7-13.59.46-5,2.05-8.22,3.41-11.66,15.62,0,31,.06,46.7.06,1.17,3.43,2.49,6.58,3,11.62.74,8-5.85,12.33-8.66,13.58-4.32,1.93-8.84,1.15-13.46,1.82-2.15.15-3.34,1.42-4.39,2.46Z"/><path class="cls-16" d="M50.31,79c1.16.41,2.37.9,2.46,2a2.67,2.67,0,0,1,2.28,2.17c.92.48,1.42.64,1.49,1.34a1.66,1.66,0,0,1,1.35,1.07,2.08,2.08,0,0,1,1.92,1.1,1.32,1.32,0,0,1,1.46.29,1.87,1.87,0,0,1,1.71,0l.71-.08a1.74,1.74,0,0,1,1.4-.76.69.69,0,0,1,.38-.87,1.07,1.07,0,0,1,0-1.42.88.88,0,0,1,0-1.14.84.84,0,0,1-.29-.93,1.08,1.08,0,0,1-.74-.78c-.68-.13-1-.35-1.14-.64a.77.77,0,0,1-.71.11,1,1,0,0,1-.86.32,1.62,1.62,0,0,1-.89.89l.11.64c.59-.24,1.2.67.82,1.29s-1.37.81-1.57,0a1.49,1.49,0,0,1-1-.84c-.21-.56-.36-.76,0-1.15a1.24,1.24,0,0,1,.52-1.68c.3-.66.7-1,1.26-.94.36-.45.46-.87,1.41-.76a1.7,1.7,0,0,1,2,0,1.46,1.46,0,0,1,1.53.65c.47.23,1,.39,1.14,1.14.55.33,1.23.55,1,1.51a2.44,2.44,0,0,1,.85,2A2.61,2.61,0,0,1,69,85.19,2.25,2.25,0,0,1,69,87a2.23,2.23,0,0,1-.86,2.2,2.53,2.53,0,0,1-1.78,2c-.74,1.39-1.61,1.72-2.56,1.46a2.36,2.36,0,0,1-2.34.78c-1,.5-2.05,1-2.67.42-1.38.53-2.55.6-3.34-.14-1.48.32-2.49-.05-3.06-1A2.15,2.15,0,0,1,50,91.91c-1.45.63-2.67.73-3.49-.14a1,1,0,0,1-.78.24A2.64,2.64,0,0,1,46,94.82a2.25,2.25,0,0,1,2.17.61c1.09-.66,2.18-.93,3.27.64,2.19-.86,3-.17,3.49,1.54a1.36,1.36,0,0,1,1.49-.3c.88-1.53,2.28-1.07,2.94.21s-.78,2.89-2.4,2.62a2,2,0,0,1-2.1.37,3.24,3.24,0,0,1-2.78-.28,2.28,2.28,0,0,1-2.63.57c-1.33,2.38-2.64,1.54-3.94.74-1,.53-1.79,0-2.63-.53a1.72,1.72,0,0,1-1.68.92,1.62,1.62,0,0,1-1.35-.57,2.51,2.51,0,0,1-3.23-.28,1.82,1.82,0,0,1-2.31-1.24,1.59,1.59,0,0,1-1.11.07c-1.5,1.43-3.57.74-3.6-1.49-.8,0-1.61,0-2.15-1.61a1.48,1.48,0,0,1,.19-1.13c-.94-.62-1.27-1.12-.81-2.59-1-.49-1.41-1.45-.59-3-.74-1.58-.93-2.8.64-4.29a5.59,5.59,0,0,1,2.8-1.78c0-1.18.54-2.09,2.42-2.42A2.84,2.84,0,0,1,35,79c.62-1,1.63-1.57,3.52-1.28.49-.88,1.58-1.22,4-.39q1.68-1.23,4,.42c.61-.71,3,.1,3.79,1.18Z"/><path class="cls-17" d="M61.05,82.57a.88.88,0,0,1-.58.64.55.55,0,0,0,1,.26c.37-.56.11-1-.42-.9Zm-.27-3.25a.79.79,0,0,0-.55,1.06c.2.62.75.59,1.17.26a1.51,1.51,0,0,1-.62-1.32Zm-.12,1.91c-.44.09-.77-.31-.95-.77-.14.4-.44.9,0,1.17s.77.3.93-.4Zm-.16.9A1.23,1.23,0,0,1,59.37,82c-.09.43.37,1.18.91,1s.48-.57.22-.84Zm8.17,2.3a1.34,1.34,0,0,0-1.81-1.11c-1,.38-1.09.84-.92,1.29a2.29,2.29,0,0,1,2.73-.18ZM68.39,83c0-.56-.46-1.22-1.55-.82s-1.11,1.28-.84,1.3c.06-.52,1.59-.73,2.39-.48Zm-.68-1.51c0-.56-.51-1.37-1.47-.8s-.61,1.4-.34,1.41c.06-.51,1-.86,1.81-.61Zm-1-1.64c-.3-.24-.92-.8-1.59.06a.75.75,0,0,0,.25,1.24c0-.47.57-1.2,1.34-1.3Zm-1.22-1a1,1,0,0,0-1.68.25.82.82,0,0,0,.62,1.36,1.89,1.89,0,0,1,1.06-1.61Zm-1.66-.56c-.33-.08-1.14-.3-1.35.71s.75,1.12.92,1a1.68,1.68,0,0,1,.43-1.67Zm-1.69.21c-.33.09-1.14.29-.88,1.22a.71.71,0,0,0,1.24.36,1.48,1.48,0,0,1-.36-1.58Zm6.53,7.76a1.21,1.21,0,0,0-1-1.7c-1.09-.15-1.35.19-1.43.62a2.35,2.35,0,0,1,2.46,1.08Zm-.8,2.59a1.84,1.84,0,0,0,0-2.83c-1.08-.85-2-.48-2.35,0,1.05-.07,2.78,1.85,2.34,2.82Zm-1.53,2c1.59-.76,1.33-2.9.19-3.8s-1.73-.77-2.25-.09a3.77,3.77,0,0,1,2.06,3.89Zm-2.18,1.3c2,.31,2-2.2,1-3.78-.68-1.11-1.27-1.15-1.65-1a6.36,6.36,0,0,1,.61,4.74ZM62,93.1c2,.31,2.52-2.71,1.55-4.28-.68-1.12-1.28-1.16-1.65-1A5.26,5.26,0,0,1,62,93.1Zm-2.71.23c2.47,1,3.74-2.85,2.42-4.88-.7-1.09-1.28-1.15-1.65-1,.7,1.9.48,4.92-.77,5.85ZM56,93.47c2.6,1.7,4-1.62,3.94-4,0-1.86-1.46-3.18-1.83-3,.92,2.49-.58,6.78-2.11,7Zm-2.71-.78c2.49,2.06,4.43-1,4.58-3.87.11-1.86-.26-3.48-1.38-3.64.42,2.9-1.26,6.95-3.2,7.51Zm-2.95-1.1c2.56,2,5.16-.81,5.6-4.24.23-1.76,0-2.63-.82-3.5,0,2.55-3.36,7.31-4.78,7.74Zm-3,0c3.45,2.11,10.16-8.56,5.43-10,.69,3-4,9.88-5.43,10Zm-1.56-.41c1.78,2.43,10-10.08,4.81-11.56.35,1.37-.5,3.84-1.79,6.11s-3.05,3.71-3,5.45Zm-.51-.06c.33-2.18,3.66-6.27,4.53-9.29.56-1.94.12-3.71-2.79-3.36,2.16,3.72-2.83,8.92-2.28,12.35-.17.31.75.09.54.3Zm-.84-.29c-.72-2.32,1.88-6.24,2.46-9.29.35-1.87-1-4.59-3.76-3.59,3,3.13-.74,9.29.59,12.5.35.3.87.29.71.38Zm-1-.47c-1.06-2.34.23-6.5.37-9.28.09-1.85-2.31-5-4.88-3,4.62,2.41,1.62,7.13,3.85,12.07.46.31.8.06.66.19ZM42,89.9c-1.19-2-.58-6.21-1.38-8.94-.54-1.83-3.48-4.11-5.42-1.44,5,1.22,2.78,6.35,6.12,10.38.52.18.79-.15.68,0Zm-1.22,0C39,88.32,39,84.29,37.58,81.86c-1.24-2.17-3.85-3.16-5.09-.1,5.25,1.22,3.62,5.3,6.58,7.62.65.47,1.8.49,1.72.57Zm-2.68-.69c-1.63-1.63-.89-2.51-2.48-4.94-1.37-2.09-5.1-3.31-5.57-.17,4.65.36,4.45,2.42,6.74,4.3.55,0,1.38.64,1.31.81Zm-11.46.57.56,0c-.49-1.13.24-2.12,1.69-2.17a7.68,7.68,0,0,1,4.87,2.32,14.45,14.45,0,0,0,4.81,2.67c1.65.49,3.74.47,5.55,1.23.86.43.71,1,.52,2a1.78,1.78,0,0,0,1.13-1.5c-.11-1.55-1.13-2.83-3.64-3.68a8.65,8.65,0,0,1-6.3-2.17A8.11,8.11,0,0,0,31.71,85a4.2,4.2,0,0,0-3.6.37c-1.69.92-1.87,1.88-1.84,2.82.12.55.25,1.1.38,1.65Z"/><path class="cls-18" d="M36.7,93a1.4,1.4,0,1,1-2.22,0,1.6,1.6,0,0,1,2.22,0Zm3.5,1.83a1.47,1.47,0,0,1,.45,1.85,1.16,1.16,0,0,1-1.73,0,1.49,1.49,0,0,1-.45-1.86,1.15,1.15,0,0,1,1.73,0Zm3.29.86a1.36,1.36,0,0,1,.5,1.84,1.4,1.4,0,0,1-1.93,0,1.37,1.37,0,0,1-.51-1.85,1.42,1.42,0,0,1,1.94,0ZM32.08,91.2a1.63,1.63,0,0,1,1.48,1.63,1.48,1.48,0,0,1-1.48,1.48,1.87,1.87,0,0,1-1.64-1.75,1.53,1.53,0,0,1,1.64-1.36Zm1.35,5.45A1.37,1.37,0,0,1,34.74,98a1.27,1.27,0,0,1-1.31,1.22,1.59,1.59,0,0,1-1.28-.84,1.23,1.23,0,0,0,.71-1.09,1.25,1.25,0,0,0-.11-.5,2,2,0,0,1,.68-.13Zm-3.71-.52a1.13,1.13,0,0,0-.59,1,1.52,1.52,0,0,0,.27.76h-.09a1.61,1.61,0,0,1-1.46-1.47,1,1,0,0,1,.34-.8,1.25,1.25,0,0,0,.77.27,1.2,1.2,0,0,0,.33,0,2.08,2.08,0,0,0,.43.3Zm-.39-3a1.27,1.27,0,0,0-.61,1.06,1.89,1.89,0,0,0,.56,1.24,1.6,1.6,0,0,1-.39.05,1.88,1.88,0,0,1-1.63-1.75,1.13,1.13,0,0,1,.14-.56,1.5,1.5,0,0,0,.37,0,1.45,1.45,0,0,0,1-.36,1.51,1.51,0,0,0,.59.27Zm3.27,4.48,0,.06a1.45,1.45,0,0,1-.53.81,1.43,1.43,0,0,0,.48-.87Zm.23,1.93a1.44,1.44,0,0,1-1.2.65,1.82,1.82,0,0,1-1.58-1.7.86.86,0,0,1,0-.23,1.55,1.55,0,0,0,1.11.58,1.47,1.47,0,0,0,.72-.2,2,2,0,0,0,.93.9Zm.75-6.1a1.15,1.15,0,0,1,.69.24,1.36,1.36,0,0,0,.44,1.76,1.27,1.27,0,0,1-1.13.69,1.62,1.62,0,0,1-1.41-1.5h.09a1.28,1.28,0,0,0,1.28-1.2Zm-1.83,2.35a1.58,1.58,0,0,1,.53.77,1.33,1.33,0,0,1-.91,1.65,1.66,1.66,0,0,1-1.84-1.1,1.05,1.05,0,0,1,.11-.85l0,0a1.66,1.66,0,0,0,2.07-.49Zm-4-5.68a1.14,1.14,0,0,1,.65.21,1.1,1.1,0,0,0-.52.91,1.66,1.66,0,0,0,.71,1.26,1.27,1.27,0,0,1-.84.32,1.63,1.63,0,0,1-1.42-1.52,1.32,1.32,0,0,1,1.42-1.18ZM29.67,90a1.32,1.32,0,0,1,1.2,1.13,1.08,1.08,0,0,0-.58.92,1.12,1.12,0,0,0,.05.31,1.18,1.18,0,0,1-.67.2,1.54,1.54,0,0,1-1.34-1.44A1.25,1.25,0,0,1,29.67,90Zm2,4.49a1,1,0,0,1-.1,1,1.31,1.31,0,0,1-1.8,0,1.29,1.29,0,0,1-.47-1.74,1,1,0,0,1,.86-.35,1.83,1.83,0,0,0,1.49,1.11Zm19,2.08A1.16,1.16,0,0,1,49.79,98a1.42,1.42,0,0,1-1.58-1,1.15,1.15,0,0,1,.95-1.44,1.41,1.41,0,0,1,1.57,1Zm3.4.51a1.15,1.15,0,0,1-.93,1.43,1.41,1.41,0,0,1-1.56-1,1.14,1.14,0,0,1,.93-1.43,1.41,1.41,0,0,1,1.56,1ZM36.85,99.66a.83.83,0,0,1-.14.6,1.27,1.27,0,0,1-2-1.49.76.76,0,0,1,.5-.29.89.89,0,0,0,0,.56,1.1,1.1,0,0,0,1.21.8.9.9,0,0,0,.41-.18Zm1-.84a1.12,1.12,0,0,1-.74.66,1.38,1.38,0,0,1-1.65-.8,1.16,1.16,0,0,1,0-1,1.33,1.33,0,0,0,.88,0,1.13,1.13,0,0,0,.68-.54,1.14,1.14,0,0,0,0,.83,1.33,1.33,0,0,0,.78.76Zm-.26-3a1.1,1.1,0,0,1-1,1.35,1.58,1.58,0,0,1-1.74-1,1,1,0,0,1,0-.57,2.32,2.32,0,0,0,.3.22,1.82,1.82,0,0,0,2.22,0,1.17,1.17,0,0,0,.17-.28,1.6,1.6,0,0,1,.1.23Zm10.11,1.76a1.26,1.26,0,0,1-.85.5,1.56,1.56,0,0,1-1.74-1.14,1.27,1.27,0,0,1,1-1.59,1.54,1.54,0,0,1,1.5.64,1.26,1.26,0,0,0-.2,1.08,1.5,1.5,0,0,0,.24.51Zm2.16,1.12a1.17,1.17,0,0,1-1,1.47,1.47,1.47,0,0,1-1.63-1.06,1.19,1.19,0,0,1,.7-1.41,1.86,1.86,0,0,0,1.9,1Zm-1,1.78a1.19,1.19,0,0,1-1.12,1.33,1.66,1.66,0,0,1-1.82-1,1.13,1.13,0,0,1,.94-1.41,2.06,2.06,0,0,0,2,1.12ZM52,99a1.06,1.06,0,0,1-.88,1.33A1.3,1.3,0,0,1,50,99.94a1.43,1.43,0,0,0,.36-1.4,1.51,1.51,0,0,0-.14-.35,1.09,1.09,0,0,1,.36-.12,1.2,1.2,0,0,1,.65.07,2.06,2.06,0,0,0,.7.61A1.53,1.53,0,0,1,52,99Zm3-.3a1.2,1.2,0,0,1-1,1.5,1.48,1.48,0,0,1-1.64-1.07l0-.16a2.08,2.08,0,0,0,.86.05A1.58,1.58,0,0,0,54.57,98a1.46,1.46,0,0,1,.48.75Zm2,0a1.15,1.15,0,0,1-1,1.45,1.37,1.37,0,0,1-.89-.16,1.42,1.42,0,0,0,.39-1.43,1.75,1.75,0,0,0-.47-.78,1.23,1.23,0,0,1,.34-.11,1.43,1.43,0,0,1,1.58,1Zm2-.65a1.16,1.16,0,0,1-1,1.45,1.32,1.32,0,0,1-.56,0,1.38,1.38,0,0,0,0-.78,1.79,1.79,0,0,0-.9-1.1,1.17,1.17,0,0,1,.84-.57,1.44,1.44,0,0,1,1.58,1ZM43,99.14a1.79,1.79,0,0,1-2,.67,1.09,1.09,0,0,1-.22-1.72,2.11,2.11,0,0,1,.51-.48,2.11,2.11,0,0,0,1.88.72l.15,0a1.56,1.56,0,0,1-.31.84Zm-2.6-1.63a1.41,1.41,0,0,1-.11,1.18c-.38.59-1.21.59-1.86,0a2.08,2.08,0,0,1-.67-1.54,1.07,1.07,0,0,0,.33-.78l.06-.05A1.67,1.67,0,0,0,40,97.65a1.12,1.12,0,0,0,.4-.14Zm2.4,3.13a1.78,1.78,0,0,1-2,.67,1,1,0,0,1-.42-1.4,2.1,2.1,0,0,0,1.61.44,1.67,1.67,0,0,0,1.12-.66,1.46,1.46,0,0,1-.31,1Zm-2.95-1a1.54,1.54,0,0,1-1.17,1.65,1.23,1.23,0,0,1-1.56-1,1.26,1.26,0,0,1,0-.55,1.71,1.71,0,0,0,1-.63,2,2,0,0,0,1.31.24l.25-.05a.85.85,0,0,1,.09.31Zm5.9,1.34-.1.08a1.66,1.66,0,0,1-2.09,0,1.13,1.13,0,0,1,.15-1.69,2,2,0,0,0,2,.18,1.38,1.38,0,0,0-.12,1.08,1.61,1.61,0,0,0,.16.39Zm1.12-2.84a1.5,1.5,0,0,1-1.45,1.06,1.38,1.38,0,0,1-1.6-1.06v0a1.45,1.45,0,0,0,.84-1.09h0a2,2,0,0,0,2.14,1.13Z"/><path class="cls-19" d="M58.05,59.78a19,19,0,0,0-2.34-6.24c-.69-.75-1.45-1.42-2.14-2.18l2.66,2a19.63,19.63,0,0,1,2.16,5.29c.31-.29.47-.11.79-.4,1.52-.73,3.21-3.07,4.73-4.71-.22.53-1.08,2-1.3,2.55-2.87,2.91-4,3.12-4,4.18-.09.35-.18.7-.26,1,.57-.54,2.18-2.2,2.76-2.75-.53.8-2.21,2.71-2.28,3.5-.56.66-.26,1.32-.13,2,2.12-.66,4.47-2.47,6.81-4.22-2.32,2.91-4.48,3-6.72,5.72l-.36,3.21c.11.91.21,1.82.31,2.72a2.31,2.31,0,0,1,1.23,1c1.5.32,5.79.42,7.25,1.23l-18.4,0c.9-.6,5.18-1,6.49-1a3.26,3.26,0,0,1,1.76-1.45c.1-1.53.21-3,.31-4.58a2.31,2.31,0,0,0-1-2,20.06,20.06,0,0,1-4.51-5,38.58,38.58,0,0,0,5.7,5.08c.07-.28.15-.56.22-.84V61.78a16.72,16.72,0,0,1-3.89-4c0-.08-1.49-1.83-1.43-1.91a38.5,38.5,0,0,0,5.45,5l0-.48c-.15-.21-.3-.41-.44-.62l.56-.06Z"/><path class="cls-20" d="M65.33,59.6c.78-2.35,1.44-2.26,2.79-3-.9,2.15-1.72,3-2.79,3Z"/><path class="cls-20" d="M59.15,65.31c2.47-1.39,3.07.54,4.25.49-1.47,1.16-3.31-.51-4.25-.49Z"/><path class="cls-20" d="M61,52.47c-1.31-3.15,1.11-3.28,1.22-4.6,1.18,2-1.1,3.55-1.22,4.6Z"/><path class="cls-20" d="M56.64,63.94c-1.12-1.59-.6-1.93-.16-3,.89,1.56.88,2.42.16,3Z"/><path class="cls-20" d="M53.67,61.35c-2.23-1.75-.22-2.84-.59-3.85,1.7.94.32,3,.59,3.85Z"/><path class="cls-20" d="M55.55,62.92c-2.21-1.77-.64-3.05-1.13-4.12,1.62.93.76,3.26,1.13,4.12Z"/><path class="cls-20" d="M64,53.46c-.22-3.25,1.48-3.69,2.72-5,0,3-1.49,4.65-2.72,5Z"/><path class="cls-20" d="M60.5,64.07c2.42-1.46,3.09.45,4.26.37-1.43,1.2-3.33-.41-4.26-.37Z"/><path class="cls-20" d="M62.35,62.9c2.59-1.14,3,.84,4.17.91-1.57,1-3.24-.84-4.17-.91Z"/><path class="cls-20" d="M63.78,62.09c1.64-2,2.69-.31,3.64-.68-.88,1.51-2.88.41-3.64.68Z"/><path class="cls-20" d="M65,60.85c.86-2.06,2-.51,2.66-.93-.37,1.52-2.12.61-2.66.93Z"/><path class="cls-20" d="M57.59,65.31c-2.47-1.39-3.07.54-4.24.49,1.46,1.16,3.3-.51,4.24-.49Z"/><path class="cls-20" d="M56.24,64.07c-2.42-1.46-3.09.45-4.26.37,1.43,1.2,3.33-.41,4.26-.37Z"/><path class="cls-20" d="M54.39,62.9c-2.59-1.14-3,.84-4.17.91,1.57,1,3.24-.84,4.17-.91Z"/><path class="cls-20" d="M53,62.09c-1.64-2-2.69-.31-3.64-.68.88,1.51,2.88.41,3.64.68Z"/><path class="cls-20" d="M51.7,60.85c-.86-2.06-2-.51-2.66-.93.37,1.52,2.12.61,2.66.93Z"/><path class="cls-20" d="M51.83,59.44c-.78-2.35-1.44-2.26-2.8-3,.91,2.15,1.73,2.95,2.8,3Z"/><path class="cls-20" d="M59.91,63.39a3.79,3.79,0,0,0,.81-3.23,2.84,2.84,0,0,0-.81,3.23Z"/><path class="cls-20" d="M63.56,60.67c2.6-1.13.93-2.77,1.42-4.53-1.18,1.69-1.22,3.87-1.42,4.53Z"/><path class="cls-20" d="M61.39,62.32c2.58-1.16,1.27-3.27,2-4.18-1.51.88-1.43,3.44-2,4.18Z"/><path class="cls-20" d="M53.5,57.26c-1.46-2-2.06-1.71-3.58-2,1.52,1.77,2.55,2.28,3.58,2Z"/><path class="cls-20" d="M53,56.35c.16-2.86-.59-3-1.74-4.39.06,2.7.61,3.91,1.74,4.39Z"/><path class="cls-20" d="M54.28,51.79c1.47-2.14.73-2.42.07-3.67-1.16,2.06-1.1,3.08-.07,3.67Z"/><path class="cls-20" d="M54.64,58.49c-2.22-1.74-.22-2.83-.58-3.84,1.69.94.31,3,.58,3.84Z"/><path class="cls-20" d="M56.64,59.9c-1.12-1.59-.6-1.92-.16-3,.89,1.56.88,2.42.16,3Z"/><path class="cls-20" d="M55.54,59.1a3.76,3.76,0,0,0,0-3.33,2.86,2.86,0,0,0,0,3.33Z"/><path class="cls-20" d="M56.11,53.06c-2.23-1.74-.22-2.84-.59-3.84,1.69.94.31,3,.59,3.84Z"/><path class="cls-20" d="M60.81,52c-2.7-.82-1.23-2.56-1.93-3.37,1.92.26,1.39,2.72,1.93,3.37Z"/><path class="cls-20" d="M59.12,58.4a4.71,4.71,0,0,0,.08-4.11,3.5,3.5,0,0,0-.08,4.11Z"/><path class="cls-20" d="M62.88,54.38c2.19-1.78.15-2.91.14-4.74-.68,2-.13,4.06-.14,4.74Z"/><path class="cls-20" d="M60.56,57.4c2.1-2.4-.49-3.48-.22-4.66-1.12,1.59.41,3.72.22,4.66Z"/><path class="cls-20" d="M68.32,53.25c-2.08,2-2.83,1.39-4.82,1.21,2.14-1.65,3.51-1.93,4.82-1.21Z"/><path class="cls-20" d="M62.08,56.32c2.3-1.69,3-1,4.93-.61-2.32,1.37-3.72,1.47-4.93.61Z"/><path class="cls-20" d="M62.26,55.68a4.58,4.58,0,0,0-.84-4,3.46,3.46,0,0,0,.84,4Z"/><path class="cls-20" d="M57.69,56.13c-.74-1.8-.16-2,.52-3,.52,1.73.32,2.56-.52,3Z"/><path class="cls-20" d="M56.6,54.18A3.79,3.79,0,0,0,57.69,51a2.86,2.86,0,0,0-1.09,3.15Z"/><path class="cls-20" d="M55.46,53.29a3.78,3.78,0,0,0-3.24-.76,2.84,2.84,0,0,0,3.24.76Z"/><path class="cls-20" d="M56.85,56.14a3.76,3.76,0,0,0-3.24-.75,2.85,2.85,0,0,0,3.24.75Z"/><path class="cls-20" d="M56.65,55a3.81,3.81,0,0,0-3.24-.76,2.83,2.83,0,0,0,3.24.76Z"/><path class="cls-20" d="M59.18,59c2.41,1.47,3.09-.43,4.26-.34-1.42-1.21-3.33.39-4.26.34Z"/><path class="cls-20" d="M61,57.49c2.16-1.21,2.59-.7,4.08-.31-2.13,1-3.27,1-4.08.31Z"/><path class="cls-20" d="M53.89,52c-2,.18-2.34-.89-3.15-1.66,1.9,0,2.95.88,3.15,1.66Z"/><path class="cls-21" d="M45.59,72.25a6.19,6.19,0,0,0-.8-.13c-.66,0-2.58-.6-3-.49-1.15.38-3-.88-3.67-.44-.44.27-3,.16-3.78.16-1.92,0-3.13-.43-4.66.33-.77.39-1.86-.82-2.25-.43a3.84,3.84,0,0,1-2.81,1c-.13.46-.28.9-.42,1.33H45.59V72.25Z"/><path class="cls-16" d="M41.59,63.19c-1.08.46-1.8,3.47-2.23,4.34-.25.49-.79,1.64-.28,2.36.23.32.61.43.63.69.75.12,1.16.49,1.1,1.06-.3.51-1.39.4-1.92.1a.48.48,0,0,0-.24-.4L38.53,71c-1.57-.82-.48-1.84-.67-4.07l-.3,1.23a13.61,13.61,0,0,0-.15,2.74,1.92,1.92,0,0,0,.84.85c.34.14.35.26.7.79,0,.12.22.44.08.56-.19.28-.25.45-1.5.1,0-.17-.05-.34-.07-.51-.15.07-.27,0-.33-.2a1.14,1.14,0,0,0-.49-.71c0-.36-.44-.36-.57-.86a8.31,8.31,0,0,1,.19-2.11,15.2,15.2,0,0,0,.39-3.26,3,3,0,0,1-.53-2.29c-1,.41-2.49-.41-3-.74s-.25,2.16-2,3.18a2.11,2.11,0,0,0-.69,1.16c-.59.59.37,2.68,1,3.35.3.34.76,1,1.06,1.29.46.29,1.12.63,1.08,1.17a3,3,0,0,1-2.09,0c0-.23-.39-.63-.1-.86a1.41,1.41,0,0,1-1-.4,33,33,0,0,0-1.85-3.78c-.23,0-.32-.65-.3-.88,0-.42.08,0,.58-1.37-.35.68-1.31,1.26-1.25,2.13.11.64.71,2.18.82,2.82.39.33.25.66,1.11,1,.41.34,1.06,1,1.07,1.36a3,3,0,0,1-2.15.1c-.13-.29-.17-.73-.3-1-.18,0-.1-.3-.29-.34s-.74-.1-.94-.23c-.32-1.46-.69-3.84-1-5.3a1.45,1.45,0,0,1,.41-1.26,7.76,7.76,0,0,0,1.5-1.79c.73-.55.35-2-.32-2.8-.3.42-.12.55-.24.62-.35.19-.83-.82-.67-1.32s0-1.12.13-1.95c.25-1.35,1-1.64,1.75-1A4.38,4.38,0,0,1,32,55.13a6.73,6.73,0,0,1,4.68.4A5.34,5.34,0,0,1,39.39,57c.37.32.82.07,1.09-.29a15.81,15.81,0,0,0-1.09-6.47c-.9.57-1.6-.06-2.54-.66-.26-.13-.24-.26-.06-.39s.59-.22.9-.22c-.5-.37-.4-.53-.1-.6.75.18,1.46-.38,2.13,0,.44-.69,1.21-.68,2-.72a2.29,2.29,0,0,1,1.69.82c.23.36,1.16.47,1.34.67s0,.72-.07,1.07a.93.93,0,0,1-.77.47c-.2.06-.43,0-.62.08s-.34.36-.6.49a17.62,17.62,0,0,1,.82,6.47c0,1.22-.08,2.86-1.39,3.91-.51.41-.19,1.07-.48,1.5Z"/><path class="cls-19" d="M39.84,49.54c-.17.21-.78.75-1.25.66s-.51-.44-1.09-.55q-.41-.15.06-.3c.69-.23,1.57-.69,2.2-.05a9.73,9.73,0,0,1-1.23.16,2.05,2.05,0,0,0,1.31.08Z"/><path class="cls-22" d="M37.9,48.8c-.26-.1-.4-.15-.11-.24.81.15,1.42-.38,2,.14-.16.08-.14.15-.33.17-.16-.26-1.17,0-1.52-.07Z"/><path class="cls-19" d="M40.08,48.59a2,2,0,0,1,2.63-.18,3,3,0,0,0,1.57.81.34.34,0,0,0,.34.33c0,.09-.07.31-.11.39s-.72.15-1.21.15a2.11,2.11,0,0,0,1.11.11c-.1.2-.43.6-1.24.41-.21.44-.63.81-1.48.46-.25,0-.61-.16-.87-.22a2.35,2.35,0,0,0,1.36.81,19.64,19.64,0,0,1,1,5.76,8.69,8.69,0,0,1-.67,3.3c-.2.5-.57.57-.76.84-.48.68-.34,1.33-.55,1.64-1.38.2-1.5,4.28-2.27,4.09-.57-.14-.83-2.21-.11-2.64,2.39-1.42,1.52-4.9,1.65-4.6-.52,1.86-.16,3.66-1.36,3.57-1-.41-1.43,2.45-1.41,2.91a3.33,3.33,0,0,1-.29,1.31c-.09.41-.13,1-.24,2.35a1.92,1.92,0,0,0,.07.8,2.28,2.28,0,0,0,1,1c.52.2.76.84.62,1a.91.91,0,0,1-1.16,0,1.16,1.16,0,0,1-.12-.52c-.4,0-.41-.56-.76-.9.08-.33-.63-.43-.63-1a23.25,23.25,0,0,1,.57-3.24,5.26,5.26,0,0,0,.31-1.64c-.17-.48.39-.49,0-.85-.76-.74-.67-2,.38-3.18-.21-.12-.31-.48-.47-.71v.87l-.85,1A4,4,0,0,1,33,61.71a1.66,1.66,0,0,1-.75-1.53c0-.14-.48,0-.4.11s-.13.44-.05.81.71.46.68.71l-.18,1.44A5,5,0,0,1,30.58,66l-.67,1.47c-.05.87,1.16,2.55,1.79,3.34.22.19.43.62.65.81a2.49,2.49,0,0,1,1,.88,2.74,2.74,0,0,1-1.67,0,.69.69,0,0,1,0-.8,1.76,1.76,0,0,1-1-.46c-.6-1.3-1.24-2.61-2-3.92a1,1,0,0,1,.2-1.2c.75-1.65.94-2.93.54-3.81-.65-.22-1.22-1.41-1.37-2.49a4,4,0,0,1,.77-3.31A3.81,3.81,0,0,1,32,55.54c1.74-.73,5.2.34,5.76.74,1,.15,1.29,1.29,2.09,1.22a1.1,1.1,0,0,0,1-1.06c0-4.89-1.19-5.42-1.06-6.24a1,1,0,0,1,.56-.55c-.2-.19-.37-.39-.32-.58s.09-.32.13-.48Z"/><path class="cls-16" d="M43.12,49.35c-.54-.19-.55-.44-1.19-.26-.43.23-.38.29-.51.52.23-.12.3-.2.44-.13s.69.11.77-.11c.18-.06.31,0,.49,0Z"/><path class="cls-19" d="M39.16,64A1.38,1.38,0,0,1,39,65.27a1.4,1.4,0,0,1-.2,1.82c.47.86-.17,1.32-.13,2.44.27.69.78.7.79,1.15.65.11,1.11.27,1.13.77,0,.08-.14-.17-.34-.11.21.13.28.26.21.3a2.1,2.1,0,0,1-.92.14c-.16-.06-.39-.07-.47-.36,0-.11.09-.33.11-.44-.64-.13-.88-.46-.9-1.14a4.48,4.48,0,0,0-.2.56,1.14,1.14,0,0,1-.27-.89A6.43,6.43,0,0,0,38,66.72c0-2.06.55-2.38,1.16-2.76Z"/><path class="cls-9" d="M27.55,57.6c.1.19-.12.62-.42,1.12a.86.86,0,0,0,.58-.35,2.22,2.22,0,0,1-.52.9c.13.06.29,0,.49-.32v.23c-.06.19-.17.45-.23.63s-.21.46-.32.73A2.25,2.25,0,0,1,27,58.61c-.23-.2,0-.61.23-.93-.06,0-.23.15-.29.17a2.52,2.52,0,0,1,.52-1.36.47.47,0,0,1,.75.21c0,.22.07.32-.38.55s-.41.36-.24.35Z"/><path class="cls-23" d="M29.77,61.18c0,1.09.26,1.79.24,2.72a7.69,7.69,0,0,1-.91,2.83c.15-.16.35-.47.49-.4a4.47,4.47,0,0,1,.64-1.52,2.11,2.11,0,0,0,.17-1.63,5.34,5.34,0,0,1-.63-2Z"/><path class="cls-19" d="M27.31,66.88l-.12.63a8.15,8.15,0,0,0,.93,2.92,2.09,2.09,0,0,1,.55.58l.43.44a3,3,0,0,1,1.19,1,2,2,0,0,1-1.62,0c-.13-.34-.25-.68-.38-1L28,71.19c-.26-.12-.95-.38-1-.67a22.66,22.66,0,0,0-.78-4.33,1.36,1.36,0,0,1,.2-1.45,5.39,5.39,0,0,0,1.36-1.33,2.5,2.5,0,0,0,.78-1.62,2.26,2.26,0,0,1,.49,1.3,3.1,3.1,0,0,1-.2,2l-1.53,1.74Z"/><path class="cls-23" d="M28.38,62.83c-.1,1.4-1.71,2.23-1.75,3.63a2.92,2.92,0,0,1,.24-1.71,6.18,6.18,0,0,0,1.51-1.92Z"/><path class="cls-23" d="M26.89,64a2.77,2.77,0,0,0-.53,1.19c-.05-.27-.16-.54,0-.81a.79.79,0,0,1,.49-.38Z"/><path class="cls-24" d="M48.11,23.94c3.07-1.14,3.5,1,4.87,1.06-1.87,1-3.78-1-4.87-1.06Z"/><path class="cls-24" d="M51,23.34c3.49-.38,3.39,1.91,4.79,2.38-2.21.57-3.68-2-4.79-2.38Z"/><path class="cls-24" d="M46.94,27.51c3.14,1.87,4-.35,5.57-.19-1.85-1.5-4.36.3-5.57.19Z"/><path class="cls-24" d="M51,28.21c2.71,2.47,4,.48,5.49.95-1.5-1.85-4.32-.59-5.49-.95Z"/><path class="cls-24" d="M46.67,25.48c3,2.09,3.85.89,6.19.47-2.45-1.09-4.14-1.3-6.19-.47Z"/><path class="cls-24" d="M51.54,25.55c2.07,3,2.32,1.74,4.65,2.18-1.91-1.88-2.44-2.22-4.65-2.18Z"/><path class="cls-24" d="M55.25,25.17C59.59,26.73,58,29,59.33,30.25c-3-.66-3-4.07-4.08-5.08Z"/><path class="cls-24" d="M55.51,28.65c-.12,2.58,1.87,2.79,4.08,4.2-.6-1.92-1.62-3.09-4.08-4.2Z"/><path class="cls-24" d="M59.78,27.8c2.11,4.11-.6,4.67-.47,6.5-1.73-2.5.55-5,.47-6.5Z"/><path class="cls-24" d="M54.77,31.11c1.15,3.48,1.74,2.32,3.86,3.38-1.31-2.33-1.72-2.81-3.86-3.38Z"/><path class="cls-24" d="M59.63,38.85c-1.74-4.38,1.55-4.53,1.72-6.36,1.58,2.74-1.55,4.91-1.72,6.36Z"/><path class="cls-24" d="M56.34,39.63c3.31-2.8.34-4,.89-5.46-2.52,1.59-.48,4.29-.89,5.46Z"/><path class="cls-24" d="M59.13,33.35c-2.3,2.85-1,2.72-.75,5.08,1.25-2.36,1.43-3,.75-5.08Z"/><path class="cls-24" d="M56.45,40.45c1.61-3.86,4.07-2.17,5.39-3.29-.65,2.68-4.32,2.42-5.39,3.29Z"/><path class="cls-24" d="M54,40.43c1.49-2.46,2.25-2,4-2-1.6,2.13-2.77,2.62-4,2Z"/><path class="cls-24" d="M52.7,41.09c3.07-2.85,4.6-.28,6.27-.76-1.7,2.17-4.93.41-6.27.76Z"/><path class="cls-24" d="M51.44,40.21c1.21-4.43,4.11-2.12,5.38-3.31-.33,3.13-4.34,2.39-5.38,3.31Z"/><path class="cls-24" d="M50.36,41.52c2-2,2.66-1.33,4.41-1-2.07,1.67-3.32,1.86-4.41,1Z"/><path class="cls-24" d="M47.18,42.07c1.21-4.43,4.11-2.12,5.38-3.31-.33,3.13-4.34,2.39-5.38,3.31Z"/><path class="cls-24" d="M47.84,42.34c3.45-2.38,4.6.38,6.32.15-2,1.9-4.94-.31-6.32-.15Z"/><path class="cls-24" d="M45.35,24.3c-3.08-1.14-3.51,1-4.88,1.06,1.87,1,3.79-1,4.88-1.06Z"/><path class="cls-24" d="M43,23.7c-3.49-.38-3.38,1.91-4.78,2.38,2.21.57,3.68-2,4.78-2.38Z"/><path class="cls-24" d="M47.12,27.87c-3.15,1.87-4-.35-5.57-.19,1.85-1.5,4.35.3,5.57.19Z"/><path class="cls-24" d="M43,28.57c-2.71,2.47-4,.48-5.5.95,1.51-1.84,4.33-.59,5.5-.95Z"/><path class="cls-24" d="M47.38,25.84c-3,2.09-3.85.89-6.19.47,2.45-1.09,4.14-1.3,6.19-.47Z"/><path class="cls-24" d="M42.52,25.91c-2.07,3-2.32,1.75-4.66,2.18,1.91-1.88,2.44-2.22,4.66-2.18Z"/><path class="cls-24" d="M38.81,25.53c-4.35,1.56-2.74,3.83-4.09,5.08,3-.65,3-4.07,4.09-5.08Z"/><path class="cls-24" d="M38.54,29c.13,2.57-1.87,2.78-4.08,4.19.61-1.92,1.62-3.09,4.08-4.19Z"/><path class="cls-24" d="M34.8,28.61C31.66,32,34.12,33.27,33.5,35c2.34-1.94.83-5,1.3-6.38Z"/><path class="cls-24" d="M39,31.14c-.62,3.61-1.38,2.55-3.32,3.91.95-2.5,1.29-3,3.32-3.91Z"/><path class="cls-24" d="M34.34,38.44c1.74-4.38-1.55-4.53-1.72-6.36C31,34.82,34.17,37,34.34,38.44Z"/><path class="cls-24" d="M37.2,39.86c-2.57-3.5.6-4,.4-5.52,2.09,2.13-.52,4.28-.4,5.52Z"/><path class="cls-24" d="M34.92,33.71c2.31,2.85,1,2.72.76,5.08-1.26-2.36-1.44-3-.76-5.08Z"/><path class="cls-24" d="M37.51,41.05c-1.22-4-3.84-2.55-5-3.8.39,2.73,4.06,2.83,5,3.8Z"/><path class="cls-24" d="M40.08,40.79c-1.49-2.46-2.25-1.95-4-2,1.59,2.13,2.76,2.63,4,2Z"/><path class="cls-24" d="M41.35,41.45c-3.07-2.84-4.6-.28-6.27-.76,1.71,2.17,4.94.41,6.27.76Z"/><path class="cls-24" d="M40.74,41.57c1.57-3.74-1.7-3.71-1.94-5.23-1.47,2.36,1.72,4,1.94,5.23Z"/><path class="cls-24" d="M43.69,41.88c-2-2-2.66-1.33-4.4-1,2.07,1.68,3.32,1.86,4.4,1Z"/><path class="cls-24" d="M46.87,42.43c-1.21-4.43-4.1-2.12-5.38-3.31.34,3.13,4.35,2.39,5.38,3.31Z"/><path class="cls-24" d="M46.21,42.7c-3.44-2.38-4.59.38-6.31.15,2,1.9,4.94-.3,6.31-.15Z"/><path class="cls-24" d="M48,24.12c-3,2.15-2.76.86-5.11.49,2.43-1.13,3-1.28,5.11-.49Z"/><text class="cls-25" transform="translate(6.54 30.63) rotate(-56.09)">R</text><text class="cls-25" transform="matrix(0.66, -0.75, 0.75, 0.66, 10.06, 25.4)">E</text><text class="cls-25" transform="matrix(0.75, -0.66, 0.66, 0.75, 13.91, 21.05)">P</text><text class="cls-25" transform="translate(18.26 17.22) rotate(-33.54)">Ú</text><text class="cls-25" transform="translate(23.5 13.73) rotate(-25.72)">B</text><text class="cls-25" transform="translate(29.19 11.01) rotate(-18.52)">L</text><text class="cls-25" transform="matrix(0.97, -0.24, 0.24, 0.97, 34.29, 9.36)">I</text><text class="cls-25" transform="translate(36.54 8.71) rotate(-8.43)">C</text><text class="cls-25" transform="translate(42.78 7.78) rotate(-0.91)">A</text><text class="cls-25" transform="translate(48.83 7.75) rotate(4.07)"> </text><text class="cls-25" transform="translate(51.17 7.82) rotate(9.35)">D</text><text class="cls-25" transform="matrix(0.96, 0.29, -0.29, 0.96, 57.37, 8.84)">E</text><text class="cls-25" transform="translate(62.97 10.53) rotate(23.7)">L</text><text class="cls-25" transform="translate(67.7 12.66) rotate(28.29)"> </text><text class="cls-25" transform="translate(69.83 13.71) rotate(33.41)">P</text><text class="cls-25" transform="translate(74.68 16.9) rotate(40.65)">E</text><text class="cls-25" transform="matrix(0.67, 0.75, -0.75, 0.67, 79.1, 20.65)">R</text><text class="cls-25" transform="translate(83.29 25.33) rotate(56.24)">Ú</text><polyline class="cls-26" points="7.57 57.88 7.51 58.15 6.83 60.46 6.69 61.09"/><polyline class="cls-26" points="6.97 57.73 6.83 58.12 6.47 59.35 6.34 59.64"/><polyline class="cls-26" points="8.13 58.65 8.07 59.03 7.39 61.34 7.25 62.05"/><polyline class="cls-26" points="8.75 59.38 8.64 59.91 7.96 62.22 7.84 62.7"/><polyline class="cls-26" points="9.35 59.97 9.2 60.79 8.63 62.7 8.48 63.29"/><polyline class="cls-26" points="9.96 60.41 9.81 61.22 9.24 63.14 9.09 63.73"/><polyline class="cls-26" points="10.57 60.84 10.42 61.65 9.85 63.57 9.7 64.16"/><polyline class="cls-26" points="11.18 61.27 11.03 62.09 10.46 64.01 10.31 64.59"/><polyline class="cls-26" points="11.79 61.71 11.64 62.52 11.07 64.44 10.92 65.03"/><polyline class="cls-26" points="12.4 62.14 12.25 62.95 11.68 64.87 11.53 65.46"/><polyline class="cls-26" points="13.01 62.58 12.86 63.39 12.29 65.31 12.14 65.89"/><polyline class="cls-26" points="13.62 63.01 13.47 63.82 12.9 65.74 12.75 66.33"/><polyline class="cls-26" points="14.23 63.37 14.08 64.26 13.51 66.17 13.4 66.61"/><polyline class="cls-26" points="14.84 63.69 14.69 64.69 14.12 66.61 14.03 66.98"/><polyline class="cls-26" points="15.45 64.06 15.3 65.12 14.73 67.04 14.66 67.35"/><polyline class="cls-26" points="16.06 64.49 15.91 65.56 15.45 67.2 15.31 67.7"/><polyline class="cls-26" points="16.75 64.85 16.52 65.99 16.06 67.61 15.93 68.06"/><polyline class="cls-26" points="17.39 65.23 17.13 66.42 16.69 67.93 16.56 68.39"/><polyline class="cls-26" points="18.01 65.61 17.74 66.86 17.39 68.05 17.19 68.76"/><polyline class="cls-26" points="18.62 65.99 18.35 67.29 18.01 68.45 17.84 69.08"/><polyline class="cls-26" points="19.23 66.37 18.96 67.73 18.62 69 18.48 69.47"/><polyline class="cls-26" points="19.9 66.81 19.57 68.16 19.28 69.16 19.09 69.82"/><polyline class="cls-26" points="20.51 67.21 20.34 67.92 19.86 69.64 19.74 70.1"/><polyline class="cls-26" points="21.12 67.61 20.79 69.03 20.56 69.82 20.37 70.49"/><polyline class="cls-26" points="21.73 68.03 21.4 69.46 21.14 70.34 20.98 70.92"/><polyline class="cls-26" points="22.29 68.43 22.19 69.06 21.62 70.97 21.5 71.25"/><polyline class="cls-26" points="7.58 55.27 7.54 55.58 7.09 57.12 6.91 57.78"/><polyline class="cls-26" points="8.36 54.91 8.32 55.22 7.86 56.75 7.69 57.41"/><polyline class="cls-26" points="9.14 54.7 9.1 55.01 8.64 56.55 8.47 57.2"/><polyline class="cls-26" points="9.92 54.6 9.88 54.81 9.42 56.34 9.25 57"/><polyline class="cls-26" points="10.7 54.52 10.57 54.91 10.2 56.14 10.03 56.8"/><polyline class="cls-26" points="11.48 54.47 11.44 54.63 10.98 56.16 10.81 56.82"/><polyline class="cls-26" points="12.22 54.47 12.12 54.87 11.76 56.16 11.59 56.82"/><polyline class="cls-26" points="12.87 54.6 12.84 54.78 12.39 56.31 12.22 56.97"/><polyline class="cls-26" points="13.55 54.7 13.47 55.08 13.09 56.37 12.92 57.02"/><polyline class="cls-26" points="14.2 54.93 14.14 55.23 13.76 56.5 13.59 57.16"/><polyline class="cls-26" points="14.88 55.12 14.76 55.66 14.47 56.64 14.29 57.3"/><polyline class="cls-26" points="15.53 55.48 15.42 55.94 15.14 56.89 14.96 57.55"/><polyline class="cls-26" points="16.15 55.82 16 56.43 15.8 57.11 15.62 57.77"/><polyline class="cls-26" points="16.76 56.19 16.61 56.79 16.41 57.47 16.28 57.98"/><polyline class="cls-26" points="17.35 56.74 17.27 57.07 17.07 57.75 16.94 58.25"/><polyline class="cls-26" points="85.82 57.88 85.88 58.15 86.56 60.46 86.69 60.84"/><polyline class="cls-26" points="86.42 57.73 86.56 58.12 86.93 59.35 87.05 59.64"/><polyline class="cls-26" points="85.26 58.65 85.32 59.03 86 61.34 86.14 62.05"/><polyline class="cls-26" points="84.64 59.38 84.76 59.91 85.44 62.22 85.55 62.7"/><polyline class="cls-26" points="84.04 59.97 84.19 60.79 84.76 62.7 84.91 63.29"/><polyline class="cls-26" points="83.43 60.41 83.58 61.22 84.15 63.14 84.3 63.84"/><polyline class="cls-26" points="82.82 60.97 83.07 61.83 83.54 63.57 83.69 64.23"/><polyline class="cls-26" points="82.21 61.42 82.36 62.09 82.93 64.01 83.08 64.67"/><polyline class="cls-26" points="81.63 61.84 81.75 62.52 82.32 64.44 82.47 65.16"/><polyline class="cls-26" points="81.03 62.23 81.14 62.95 81.71 64.87 81.86 65.56"/><polyline class="cls-26" points="80.38 62.58 80.53 63.39 81.1 65.31 81.25 65.89"/><polyline class="cls-26" points="79.77 63.01 79.92 63.82 80.49 65.74 80.64 66.33"/><polyline class="cls-26" points="79.16 63.37 79.31 64.26 79.88 66.17 79.99 66.61"/><polyline class="cls-26" points="78.55 63.69 78.7 64.69 79.27 66.61 79.36 66.98"/><polyline class="cls-26" points="77.94 64.06 78.09 65.12 78.66 67.04 78.73 67.35"/><polyline class="cls-26" points="77.33 64.49 77.48 65.56 77.94 67.2 78.08 67.7"/><polyline class="cls-26" points="76.64 64.85 76.87 65.99 77.33 67.61 77.46 68.06"/><polyline class="cls-26" points="76 65.23 76.26 66.42 76.7 67.93 76.83 68.5"/><polyline class="cls-26" points="75.38 65.61 75.65 66.86 76 68.05 76.2 68.85"/><polyline class="cls-26" points="74.78 65.99 75.04 67.29 75.38 68.45 75.64 69.17"/><polyline class="cls-26" points="74.17 66.37 74.43 67.73 74.78 69 74.92 69.47"/><polyline class="cls-26" points="73.49 66.81 73.82 68.16 74.11 69.16 74.3 69.82"/><polyline class="cls-26" points="72.88 67.21 73.05 67.92 73.55 69.78 73.67 70.25"/><polyline class="cls-26" points="72.27 67.61 72.6 69.03 72.83 69.82 73.02 70.65"/><polyline class="cls-26" points="71.66 68.03 71.99 69.46 72.25 70.34 72.41 70.92"/><polyline class="cls-26" points="71.1 68.43 71.2 69.06 71.77 70.97 71.9 71.25"/><polyline class="cls-26" points="85.87 55.66 86.01 56.11 86.3 57.12 86.51 57.98"/><polyline class="cls-26" points="85.03 55.19 85.18 55.56 85.53 56.75 85.7 57.55"/><polyline class="cls-26" points="84.25 54.91 84.38 55.29 84.75 56.55 84.92 57.2"/><polyline class="cls-26" points="83.52 54.78 83.59 55.06 83.97 56.34 84.14 57"/><polyline class="cls-26" points="82.77 54.73 82.83 54.91 83.19 56.14 83.36 56.8"/><polyline class="cls-26" points="81.97 54.66 82.06 54.98 82.41 56.16 82.58 56.82"/><polyline class="cls-26" points="81.22 54.66 81.27 54.87 81.63 56.16 81.81 56.82"/><polyline class="cls-26" points="80.55 54.78 80.55 54.78 81 56.31 81.17 56.97"/><polyline class="cls-26" points="79.88 54.89 79.92 55.08 80.3 56.37 80.47 57.02"/><polyline class="cls-26" points="79.22 55.06 79.25 55.23 79.63 56.5 79.8 57.16"/><polyline class="cls-26" points="78.55 55.29 78.64 55.66 78.92 56.64 79.1 57.3"/><polyline class="cls-26" points="77.86 55.48 77.97 55.94 78.25 56.89 78.43 57.55"/><polyline class="cls-26" points="77.24 55.82 77.39 56.43 77.59 57.11 77.77 57.77"/><polyline class="cls-26" points="76.63 56.19 76.78 56.79 76.98 57.47 77.12 57.98"/><polyline class="cls-26" points="76.04 56.74 76.12 57.07 76.32 57.75 76.45 58.25"/></symbol></defs><title>Recurso 1</title><g id="Capa_2" data-name="Capa 2"><g id="MIDIS__JIMMYPHALA" data-name="MIDIS_ JIMMYPHALA"><g id="CONTORNO"><rect class="cls-27" width="1516" height="278"/></g><g id="F._BLANCO" data-name="F. BLANCO"><rect class="cls-27" x="4.63" y="6.65" width="296.37" height="265.25"/></g><g id="F._ROJO" data-name="F. ROJO"><rect class="cls-28" x="307.29" y="6.65" width="296.09" height="265.25"/></g><g id="F._GRIS" data-name="F. GRIS"><rect class="cls-29" x="609.77" y="7.12" width="899.2" height="264.78"/></g><use id="ESCUDO_PERU" data-name="ESCUDO PERU" width="93.46" height="118.41" transform="translate(59.57 16.57) scale(2.01)" xlink:href="#Nuevo_símbolo"/><text class="cls-30" transform="translate(339.7 180.38) scale(0.82 1)">PERÚ</text><text id="Ministerio_de_Desarrollo_e_Inclusión_Social" data-name="Ministerio de Desarrollo e Inclusión Social" class="cls-31" transform="translate(649.16 151.49) scale(1.08 1)">Ministerio de Desarrollo e<tspan x="0" y="79.75">Inclusión Social </tspan></text></g></g></svg>